<?xml version="1.0" encoding="UTF-8" standalone="no"?><!DOCTYPE svg PUBLIC "-//W3C//DTD SVG 1.1//EN" "http://www.w3.org/Graphics/SVG/1.1/DTD/svg11.dtd"><svg width="100%" height="100%" viewBox="0 0 24 23" version="1.1" xmlns="http://www.w3.org/2000/svg" xmlns:xlink="http://www.w3.org/1999/xlink" xml:space="preserve" xmlns:serif="http://www.serif.com/" style="fill-rule:evenodd;clip-rule:evenodd;stroke-linejoin:round;stroke-miterlimit:1.41421;"><path id="Shape-3-copy" serif:id="Shape 3 copy" d="M11.501,0c-6.352,0 -11.501,5.149 -11.501,11.5c0,6.351 5.149,11.5 11.501,11.5c6.352,0 11.501,-5.149 11.501,-11.5c0,-6.351 -5.149,-11.5 -11.501,-11.5Zm6.201,11.021l1.284,-4.682l-14.97,0l1.284,4.682l3.608,0l1.164,8.644l2.913,0l1.164,-8.644l3.553,0Zm-7.612,0l2.877,0l-1.006,7.472l-0.864,0l-1.007,-7.472Zm4.532,-3.511l2.828,0l-0.642,2.339l-2.501,0l0.315,-2.339Zm-9.07,0l2.884,0l0.315,2.339l-2.558,0l-0.641,-2.339Zm4.066,0l3.822,0l-0.315,2.339l-3.192,0l-0.315,-2.339Z" style="fill:#fff;"/></svg>